<mxfile host="app.diagrams.net" modified="2021-01-31T22:17:43.928Z" agent="5.0 (Windows NT 10.0; Win64; x64) AppleWebKit/537.36 (KHTML, like Gecko) Chrome/87.0.4280.141 Safari/537.36" etag="l48RCoNBsIovbdkcjhGp" version="14.2.9" type="github">
  <diagram id="R2lEEEUBdFMjLlhIrx00" name="Page-1">
    <mxGraphModel dx="2577" dy="2107" grid="1" gridSize="10" guides="1" tooltips="1" connect="1" arrows="1" fold="1" page="1" pageScale="1" pageWidth="850" pageHeight="1100" math="0" shadow="0" extFonts="Permanent Marker^https://fonts.googleapis.com/css?family=Permanent+Marker">
      <root>
        <mxCell id="0" />
        <mxCell id="1" parent="0" />
        <mxCell id="BKNhkeZttfRGMTX37o8m-138" style="edgeStyle=orthogonalEdgeStyle;rounded=0;jumpSize=13;orthogonalLoop=1;jettySize=auto;html=1;entryX=0.5;entryY=1;entryDx=0;entryDy=0;" edge="1" parent="1" source="BKNhkeZttfRGMTX37o8m-1" target="BKNhkeZttfRGMTX37o8m-136">
          <mxGeometry relative="1" as="geometry" />
        </mxCell>
        <mxCell id="BKNhkeZttfRGMTX37o8m-1" value="doctor" style="shape=table;startSize=30;container=1;collapsible=1;childLayout=tableLayout;fixedRows=1;rowLines=0;fontStyle=1;align=center;resizeLast=1;" vertex="1" parent="1">
          <mxGeometry x="-765" y="440" width="250" height="220" as="geometry" />
        </mxCell>
        <mxCell id="BKNhkeZttfRGMTX37o8m-2" value="" style="shape=partialRectangle;collapsible=0;dropTarget=0;pointerEvents=0;fillColor=none;points=[[0,0.5],[1,0.5]];portConstraint=eastwest;top=0;left=0;right=0;bottom=1;" vertex="1" parent="BKNhkeZttfRGMTX37o8m-1">
          <mxGeometry y="30" width="250" height="30" as="geometry" />
        </mxCell>
        <mxCell id="BKNhkeZttfRGMTX37o8m-3" value="PK" style="shape=partialRectangle;overflow=hidden;connectable=0;fillColor=none;top=0;left=0;bottom=0;right=0;fontStyle=1;" vertex="1" parent="BKNhkeZttfRGMTX37o8m-2">
          <mxGeometry width="30" height="30" as="geometry" />
        </mxCell>
        <mxCell id="BKNhkeZttfRGMTX37o8m-4" value="id int  NOT NULL" style="shape=partialRectangle;overflow=hidden;connectable=0;fillColor=none;top=0;left=0;bottom=0;right=0;align=left;spacingLeft=6;fontStyle=5;" vertex="1" parent="BKNhkeZttfRGMTX37o8m-2">
          <mxGeometry x="30" width="220" height="30" as="geometry" />
        </mxCell>
        <mxCell id="BKNhkeZttfRGMTX37o8m-5" value="" style="shape=partialRectangle;collapsible=0;dropTarget=0;pointerEvents=0;fillColor=none;points=[[0,0.5],[1,0.5]];portConstraint=eastwest;top=0;left=0;right=0;bottom=0;" vertex="1" parent="BKNhkeZttfRGMTX37o8m-1">
          <mxGeometry y="60" width="250" height="30" as="geometry" />
        </mxCell>
        <mxCell id="BKNhkeZttfRGMTX37o8m-6" value="" style="shape=partialRectangle;overflow=hidden;connectable=0;fillColor=none;top=0;left=0;bottom=0;right=0;" vertex="1" parent="BKNhkeZttfRGMTX37o8m-5">
          <mxGeometry width="30" height="30" as="geometry" />
        </mxCell>
        <mxCell id="BKNhkeZttfRGMTX37o8m-7" value="first_name  VARCHAR(30) NOT NULL" style="shape=partialRectangle;overflow=hidden;connectable=0;fillColor=none;top=0;left=0;bottom=0;right=0;align=left;spacingLeft=6;" vertex="1" parent="BKNhkeZttfRGMTX37o8m-5">
          <mxGeometry x="30" width="220" height="30" as="geometry" />
        </mxCell>
        <mxCell id="BKNhkeZttfRGMTX37o8m-8" value="" style="shape=partialRectangle;collapsible=0;dropTarget=0;pointerEvents=0;fillColor=none;points=[[0,0.5],[1,0.5]];portConstraint=eastwest;top=0;left=0;right=0;bottom=0;" vertex="1" parent="BKNhkeZttfRGMTX37o8m-1">
          <mxGeometry y="90" width="250" height="30" as="geometry" />
        </mxCell>
        <mxCell id="BKNhkeZttfRGMTX37o8m-9" value="" style="shape=partialRectangle;overflow=hidden;connectable=0;fillColor=none;top=0;left=0;bottom=0;right=0;" vertex="1" parent="BKNhkeZttfRGMTX37o8m-8">
          <mxGeometry width="30" height="30" as="geometry" />
        </mxCell>
        <mxCell id="BKNhkeZttfRGMTX37o8m-10" value="last_name VARCHAR(30) NOT NULL" style="shape=partialRectangle;overflow=hidden;connectable=0;fillColor=none;top=0;left=0;bottom=0;right=0;align=left;spacingLeft=6;" vertex="1" parent="BKNhkeZttfRGMTX37o8m-8">
          <mxGeometry x="30" width="220" height="30" as="geometry" />
        </mxCell>
        <mxCell id="BKNhkeZttfRGMTX37o8m-11" value="" style="shape=partialRectangle;collapsible=0;dropTarget=0;pointerEvents=0;fillColor=none;points=[[0,0.5],[1,0.5]];portConstraint=eastwest;top=0;left=0;right=0;bottom=0;" vertex="1" parent="BKNhkeZttfRGMTX37o8m-1">
          <mxGeometry y="120" width="250" height="30" as="geometry" />
        </mxCell>
        <mxCell id="BKNhkeZttfRGMTX37o8m-12" value="" style="shape=partialRectangle;overflow=hidden;connectable=0;fillColor=none;top=0;left=0;bottom=0;right=0;" vertex="1" parent="BKNhkeZttfRGMTX37o8m-11">
          <mxGeometry width="30" height="30" as="geometry" />
        </mxCell>
        <mxCell id="BKNhkeZttfRGMTX37o8m-13" value="doc_spec VARCHAR(30) NOT NULL" style="shape=partialRectangle;overflow=hidden;connectable=0;fillColor=none;top=0;left=0;bottom=0;right=0;align=left;spacingLeft=6;" vertex="1" parent="BKNhkeZttfRGMTX37o8m-11">
          <mxGeometry x="30" width="220" height="30" as="geometry" />
        </mxCell>
        <mxCell id="BKNhkeZttfRGMTX37o8m-14" value="" style="shape=partialRectangle;collapsible=0;dropTarget=0;pointerEvents=0;fillColor=none;points=[[0,0.5],[1,0.5]];portConstraint=eastwest;top=0;left=0;right=0;bottom=0;" vertex="1" parent="BKNhkeZttfRGMTX37o8m-1">
          <mxGeometry y="150" width="250" height="30" as="geometry" />
        </mxCell>
        <mxCell id="BKNhkeZttfRGMTX37o8m-15" value="" style="shape=partialRectangle;overflow=hidden;connectable=0;fillColor=none;top=0;left=0;bottom=0;right=0;" vertex="1" parent="BKNhkeZttfRGMTX37o8m-14">
          <mxGeometry width="30" height="30" as="geometry" />
        </mxCell>
        <mxCell id="BKNhkeZttfRGMTX37o8m-16" value="spec_price INT" style="shape=partialRectangle;overflow=hidden;connectable=0;fillColor=none;top=0;left=0;bottom=0;right=0;align=left;spacingLeft=6;" vertex="1" parent="BKNhkeZttfRGMTX37o8m-14">
          <mxGeometry x="30" width="220" height="30" as="geometry" />
        </mxCell>
        <mxCell id="BKNhkeZttfRGMTX37o8m-17" value="" style="shape=partialRectangle;collapsible=0;dropTarget=0;pointerEvents=0;fillColor=none;points=[[0,0.5],[1,0.5]];portConstraint=eastwest;top=0;left=0;right=0;bottom=0;" vertex="1" parent="BKNhkeZttfRGMTX37o8m-1">
          <mxGeometry y="180" width="250" height="40" as="geometry" />
        </mxCell>
        <mxCell id="BKNhkeZttfRGMTX37o8m-18" value="" style="shape=partialRectangle;overflow=hidden;connectable=0;fillColor=none;top=0;left=0;bottom=0;right=0;" vertex="1" parent="BKNhkeZttfRGMTX37o8m-17">
          <mxGeometry width="30" height="40" as="geometry" />
        </mxCell>
        <mxCell id="BKNhkeZttfRGMTX37o8m-19" value="pw VARCHAR(8) NOT NULL" style="shape=partialRectangle;overflow=hidden;connectable=0;fillColor=none;top=0;left=0;bottom=0;right=0;align=left;spacingLeft=6;" vertex="1" parent="BKNhkeZttfRGMTX37o8m-17">
          <mxGeometry x="30" width="220" height="40" as="geometry" />
        </mxCell>
        <mxCell id="BKNhkeZttfRGMTX37o8m-20" value="admin_table" style="shape=table;startSize=30;container=1;collapsible=1;childLayout=tableLayout;fixedRows=1;rowLines=0;fontStyle=1;align=center;resizeLast=1;" vertex="1" parent="1">
          <mxGeometry x="-500" y="-70" width="140" height="100" as="geometry" />
        </mxCell>
        <mxCell id="BKNhkeZttfRGMTX37o8m-21" value="" style="shape=partialRectangle;collapsible=0;dropTarget=0;pointerEvents=0;fillColor=none;points=[[0,0.5],[1,0.5]];portConstraint=eastwest;top=0;left=0;right=0;bottom=1;" vertex="1" parent="BKNhkeZttfRGMTX37o8m-20">
          <mxGeometry y="30" width="140" height="30" as="geometry" />
        </mxCell>
        <mxCell id="BKNhkeZttfRGMTX37o8m-22" value="PK" style="shape=partialRectangle;overflow=hidden;connectable=0;fillColor=none;top=0;left=0;bottom=0;right=0;fontStyle=1;" vertex="1" parent="BKNhkeZttfRGMTX37o8m-21">
          <mxGeometry width="30" height="30" as="geometry" />
        </mxCell>
        <mxCell id="BKNhkeZttfRGMTX37o8m-23" value="id int " style="shape=partialRectangle;overflow=hidden;connectable=0;fillColor=none;top=0;left=0;bottom=0;right=0;align=left;spacingLeft=6;fontStyle=5;" vertex="1" parent="BKNhkeZttfRGMTX37o8m-21">
          <mxGeometry x="30" width="110" height="30" as="geometry" />
        </mxCell>
        <mxCell id="BKNhkeZttfRGMTX37o8m-24" value="" style="shape=partialRectangle;collapsible=0;dropTarget=0;pointerEvents=0;fillColor=none;points=[[0,0.5],[1,0.5]];portConstraint=eastwest;top=0;left=0;right=0;bottom=0;" vertex="1" parent="BKNhkeZttfRGMTX37o8m-20">
          <mxGeometry y="60" width="140" height="30" as="geometry" />
        </mxCell>
        <mxCell id="BKNhkeZttfRGMTX37o8m-25" value="" style="shape=partialRectangle;overflow=hidden;connectable=0;fillColor=none;top=0;left=0;bottom=0;right=0;" vertex="1" parent="BKNhkeZttfRGMTX37o8m-24">
          <mxGeometry width="30" height="30" as="geometry" />
        </mxCell>
        <mxCell id="BKNhkeZttfRGMTX37o8m-26" value="pw VARCHAR(8)" style="shape=partialRectangle;overflow=hidden;connectable=0;fillColor=none;top=0;left=0;bottom=0;right=0;align=left;spacingLeft=6;" vertex="1" parent="BKNhkeZttfRGMTX37o8m-24">
          <mxGeometry x="30" width="110" height="30" as="geometry" />
        </mxCell>
        <mxCell id="BKNhkeZttfRGMTX37o8m-157" style="edgeStyle=orthogonalEdgeStyle;rounded=0;jumpSize=13;orthogonalLoop=1;jettySize=auto;html=1;entryX=0.5;entryY=0;entryDx=0;entryDy=0;" edge="1" parent="1" source="BKNhkeZttfRGMTX37o8m-27" target="BKNhkeZttfRGMTX37o8m-156">
          <mxGeometry relative="1" as="geometry" />
        </mxCell>
        <mxCell id="BKNhkeZttfRGMTX37o8m-27" value="patient" style="shape=table;startSize=30;container=1;collapsible=1;childLayout=tableLayout;fixedRows=1;rowLines=0;fontStyle=1;align=center;resizeLast=1;" vertex="1" parent="1">
          <mxGeometry x="230" y="240" width="250" height="340" as="geometry" />
        </mxCell>
        <mxCell id="BKNhkeZttfRGMTX37o8m-28" value="" style="shape=partialRectangle;collapsible=0;dropTarget=0;pointerEvents=0;fillColor=none;points=[[0,0.5],[1,0.5]];portConstraint=eastwest;top=0;left=0;right=0;bottom=1;" vertex="1" parent="BKNhkeZttfRGMTX37o8m-27">
          <mxGeometry y="30" width="250" height="30" as="geometry" />
        </mxCell>
        <mxCell id="BKNhkeZttfRGMTX37o8m-29" value="PK" style="shape=partialRectangle;overflow=hidden;connectable=0;fillColor=none;top=0;left=0;bottom=0;right=0;fontStyle=1;" vertex="1" parent="BKNhkeZttfRGMTX37o8m-28">
          <mxGeometry width="30" height="30" as="geometry" />
        </mxCell>
        <mxCell id="BKNhkeZttfRGMTX37o8m-30" value="id INT  NOT NULL" style="shape=partialRectangle;overflow=hidden;connectable=0;fillColor=none;top=0;left=0;bottom=0;right=0;align=left;spacingLeft=6;fontStyle=5;" vertex="1" parent="BKNhkeZttfRGMTX37o8m-28">
          <mxGeometry x="30" width="220" height="30" as="geometry" />
        </mxCell>
        <mxCell id="BKNhkeZttfRGMTX37o8m-31" value="" style="shape=partialRectangle;collapsible=0;dropTarget=0;pointerEvents=0;fillColor=none;points=[[0,0.5],[1,0.5]];portConstraint=eastwest;top=0;left=0;right=0;bottom=0;" vertex="1" parent="BKNhkeZttfRGMTX37o8m-27">
          <mxGeometry y="60" width="250" height="30" as="geometry" />
        </mxCell>
        <mxCell id="BKNhkeZttfRGMTX37o8m-32" value="" style="shape=partialRectangle;overflow=hidden;connectable=0;fillColor=none;top=0;left=0;bottom=0;right=0;" vertex="1" parent="BKNhkeZttfRGMTX37o8m-31">
          <mxGeometry width="30" height="30" as="geometry" />
        </mxCell>
        <mxCell id="BKNhkeZttfRGMTX37o8m-33" value="first_name VARCHAR(30) NOT NULL" style="shape=partialRectangle;overflow=hidden;connectable=0;fillColor=none;top=0;left=0;bottom=0;right=0;align=left;spacingLeft=6;" vertex="1" parent="BKNhkeZttfRGMTX37o8m-31">
          <mxGeometry x="30" width="220" height="30" as="geometry" />
        </mxCell>
        <mxCell id="BKNhkeZttfRGMTX37o8m-34" value="" style="shape=partialRectangle;collapsible=0;dropTarget=0;pointerEvents=0;fillColor=none;points=[[0,0.5],[1,0.5]];portConstraint=eastwest;top=0;left=0;right=0;bottom=0;" vertex="1" parent="BKNhkeZttfRGMTX37o8m-27">
          <mxGeometry y="90" width="250" height="30" as="geometry" />
        </mxCell>
        <mxCell id="BKNhkeZttfRGMTX37o8m-35" value="" style="shape=partialRectangle;overflow=hidden;connectable=0;fillColor=none;top=0;left=0;bottom=0;right=0;" vertex="1" parent="BKNhkeZttfRGMTX37o8m-34">
          <mxGeometry width="30" height="30" as="geometry" />
        </mxCell>
        <mxCell id="BKNhkeZttfRGMTX37o8m-36" value="last_name VARCHAR(40) NOT NULL" style="shape=partialRectangle;overflow=hidden;connectable=0;fillColor=none;top=0;left=0;bottom=0;right=0;align=left;spacingLeft=6;" vertex="1" parent="BKNhkeZttfRGMTX37o8m-34">
          <mxGeometry x="30" width="220" height="30" as="geometry" />
        </mxCell>
        <mxCell id="BKNhkeZttfRGMTX37o8m-37" value="" style="shape=partialRectangle;collapsible=0;dropTarget=0;pointerEvents=0;fillColor=none;points=[[0,0.5],[1,0.5]];portConstraint=eastwest;top=0;left=0;right=0;bottom=0;" vertex="1" parent="BKNhkeZttfRGMTX37o8m-27">
          <mxGeometry y="120" width="250" height="30" as="geometry" />
        </mxCell>
        <mxCell id="BKNhkeZttfRGMTX37o8m-38" value="" style="shape=partialRectangle;overflow=hidden;connectable=0;fillColor=none;top=0;left=0;bottom=0;right=0;" vertex="1" parent="BKNhkeZttfRGMTX37o8m-37">
          <mxGeometry width="30" height="30" as="geometry" />
        </mxCell>
        <mxCell id="BKNhkeZttfRGMTX37o8m-39" value="gender VARCHAR(1)NOT NULL" style="shape=partialRectangle;overflow=hidden;connectable=0;fillColor=none;top=0;left=0;bottom=0;right=0;align=left;spacingLeft=6;" vertex="1" parent="BKNhkeZttfRGMTX37o8m-37">
          <mxGeometry x="30" width="220" height="30" as="geometry" />
        </mxCell>
        <mxCell id="BKNhkeZttfRGMTX37o8m-40" value="" style="shape=partialRectangle;collapsible=0;dropTarget=0;pointerEvents=0;fillColor=none;points=[[0,0.5],[1,0.5]];portConstraint=eastwest;top=0;left=0;right=0;bottom=0;" vertex="1" parent="BKNhkeZttfRGMTX37o8m-27">
          <mxGeometry y="150" width="250" height="30" as="geometry" />
        </mxCell>
        <mxCell id="BKNhkeZttfRGMTX37o8m-41" value="" style="shape=partialRectangle;overflow=hidden;connectable=0;fillColor=none;top=0;left=0;bottom=0;right=0;" vertex="1" parent="BKNhkeZttfRGMTX37o8m-40">
          <mxGeometry width="30" height="30" as="geometry" />
        </mxCell>
        <mxCell id="BKNhkeZttfRGMTX37o8m-42" value="address VARCHAR(40) NOT NULL" style="shape=partialRectangle;overflow=hidden;connectable=0;fillColor=none;top=0;left=0;bottom=0;right=0;align=left;spacingLeft=6;" vertex="1" parent="BKNhkeZttfRGMTX37o8m-40">
          <mxGeometry x="30" width="220" height="30" as="geometry" />
        </mxCell>
        <mxCell id="BKNhkeZttfRGMTX37o8m-43" value="" style="shape=partialRectangle;collapsible=0;dropTarget=0;pointerEvents=0;fillColor=none;points=[[0,0.5],[1,0.5]];portConstraint=eastwest;top=0;left=0;right=0;bottom=0;" vertex="1" parent="BKNhkeZttfRGMTX37o8m-27">
          <mxGeometry y="180" width="250" height="30" as="geometry" />
        </mxCell>
        <mxCell id="BKNhkeZttfRGMTX37o8m-44" value="" style="shape=partialRectangle;overflow=hidden;connectable=0;fillColor=none;top=0;left=0;bottom=0;right=0;" vertex="1" parent="BKNhkeZttfRGMTX37o8m-43">
          <mxGeometry width="30" height="30" as="geometry" />
        </mxCell>
        <mxCell id="BKNhkeZttfRGMTX37o8m-45" value="phone int NOT NULL" style="shape=partialRectangle;overflow=hidden;connectable=0;fillColor=none;top=0;left=0;bottom=0;right=0;align=left;spacingLeft=6;" vertex="1" parent="BKNhkeZttfRGMTX37o8m-43">
          <mxGeometry x="30" width="220" height="30" as="geometry" />
        </mxCell>
        <mxCell id="BKNhkeZttfRGMTX37o8m-46" value="" style="shape=partialRectangle;collapsible=0;dropTarget=0;pointerEvents=0;fillColor=none;points=[[0,0.5],[1,0.5]];portConstraint=eastwest;top=0;left=0;right=0;bottom=0;" vertex="1" parent="BKNhkeZttfRGMTX37o8m-27">
          <mxGeometry y="210" width="250" height="30" as="geometry" />
        </mxCell>
        <mxCell id="BKNhkeZttfRGMTX37o8m-47" value="" style="shape=partialRectangle;overflow=hidden;connectable=0;fillColor=none;top=0;left=0;bottom=0;right=0;" vertex="1" parent="BKNhkeZttfRGMTX37o8m-46">
          <mxGeometry width="30" height="30" as="geometry" />
        </mxCell>
        <mxCell id="BKNhkeZttfRGMTX37o8m-48" value="birth_date DATE NOT NULL" style="shape=partialRectangle;overflow=hidden;connectable=0;fillColor=none;top=0;left=0;bottom=0;right=0;align=left;spacingLeft=6;" vertex="1" parent="BKNhkeZttfRGMTX37o8m-46">
          <mxGeometry x="30" width="220" height="30" as="geometry" />
        </mxCell>
        <mxCell id="BKNhkeZttfRGMTX37o8m-49" value="" style="shape=partialRectangle;collapsible=0;dropTarget=0;pointerEvents=0;fillColor=none;points=[[0,0.5],[1,0.5]];portConstraint=eastwest;top=0;left=0;right=0;bottom=0;" vertex="1" parent="BKNhkeZttfRGMTX37o8m-27">
          <mxGeometry y="240" width="250" height="30" as="geometry" />
        </mxCell>
        <mxCell id="BKNhkeZttfRGMTX37o8m-50" value="" style="shape=partialRectangle;overflow=hidden;connectable=0;fillColor=none;top=0;left=0;bottom=0;right=0;" vertex="1" parent="BKNhkeZttfRGMTX37o8m-49">
          <mxGeometry width="30" height="30" as="geometry" />
        </mxCell>
        <mxCell id="BKNhkeZttfRGMTX37o8m-51" value="reg_d DATETIME NOT NULL" style="shape=partialRectangle;overflow=hidden;connectable=0;fillColor=none;top=0;left=0;bottom=0;right=0;align=left;spacingLeft=6;" vertex="1" parent="BKNhkeZttfRGMTX37o8m-49">
          <mxGeometry x="30" width="220" height="30" as="geometry" />
        </mxCell>
        <mxCell id="BKNhkeZttfRGMTX37o8m-52" value="" style="shape=partialRectangle;collapsible=0;dropTarget=0;pointerEvents=0;fillColor=none;points=[[0,0.5],[1,0.5]];portConstraint=eastwest;top=0;left=0;right=0;bottom=0;" vertex="1" parent="BKNhkeZttfRGMTX37o8m-27">
          <mxGeometry y="270" width="250" height="30" as="geometry" />
        </mxCell>
        <mxCell id="BKNhkeZttfRGMTX37o8m-53" value="" style="shape=partialRectangle;overflow=hidden;connectable=0;fillColor=none;top=0;left=0;bottom=0;right=0;" vertex="1" parent="BKNhkeZttfRGMTX37o8m-52">
          <mxGeometry width="30" height="30" as="geometry" />
        </mxCell>
        <mxCell id="BKNhkeZttfRGMTX37o8m-54" value="pw VARCHAR(8) not null" style="shape=partialRectangle;overflow=hidden;connectable=0;fillColor=none;top=0;left=0;bottom=0;right=0;align=left;spacingLeft=6;" vertex="1" parent="BKNhkeZttfRGMTX37o8m-52">
          <mxGeometry x="30" width="220" height="30" as="geometry" />
        </mxCell>
        <mxCell id="BKNhkeZttfRGMTX37o8m-55" value="" style="shape=partialRectangle;collapsible=0;dropTarget=0;pointerEvents=0;fillColor=none;points=[[0,0.5],[1,0.5]];portConstraint=eastwest;top=0;left=0;right=0;bottom=0;" vertex="1" parent="BKNhkeZttfRGMTX37o8m-27">
          <mxGeometry y="300" width="250" height="30" as="geometry" />
        </mxCell>
        <mxCell id="BKNhkeZttfRGMTX37o8m-56" value="" style="shape=partialRectangle;overflow=hidden;connectable=0;fillColor=none;top=0;left=0;bottom=0;right=0;" vertex="1" parent="BKNhkeZttfRGMTX37o8m-55">
          <mxGeometry width="30" height="30" as="geometry" />
        </mxCell>
        <mxCell id="BKNhkeZttfRGMTX37o8m-57" value="total_cost int" style="shape=partialRectangle;overflow=hidden;connectable=0;fillColor=none;top=0;left=0;bottom=0;right=0;align=left;spacingLeft=6;" vertex="1" parent="BKNhkeZttfRGMTX37o8m-55">
          <mxGeometry x="30" width="220" height="30" as="geometry" />
        </mxCell>
        <mxCell id="BKNhkeZttfRGMTX37o8m-58" value="appointment" style="shape=table;startSize=30;container=1;collapsible=1;childLayout=tableLayout;fixedRows=1;rowLines=0;fontStyle=1;align=center;resizeLast=1;" vertex="1" parent="1">
          <mxGeometry x="-200" y="630" width="320" height="250" as="geometry" />
        </mxCell>
        <mxCell id="BKNhkeZttfRGMTX37o8m-59" value="" style="shape=partialRectangle;collapsible=0;dropTarget=0;pointerEvents=0;fillColor=none;points=[[0,0.5],[1,0.5]];portConstraint=eastwest;top=0;left=0;right=0;bottom=1;" vertex="1" parent="BKNhkeZttfRGMTX37o8m-58">
          <mxGeometry y="30" width="320" height="30" as="geometry" />
        </mxCell>
        <mxCell id="BKNhkeZttfRGMTX37o8m-60" value="PK" style="shape=partialRectangle;overflow=hidden;connectable=0;fillColor=none;top=0;left=0;bottom=0;right=0;fontStyle=1;" vertex="1" parent="BKNhkeZttfRGMTX37o8m-59">
          <mxGeometry width="30" height="30" as="geometry" />
        </mxCell>
        <mxCell id="BKNhkeZttfRGMTX37o8m-61" value="app_id int IDENTITY(1,1)  NOT NULL" style="shape=partialRectangle;overflow=hidden;connectable=0;fillColor=none;top=0;left=0;bottom=0;right=0;align=left;spacingLeft=6;fontStyle=5;" vertex="1" parent="BKNhkeZttfRGMTX37o8m-59">
          <mxGeometry x="30" width="290" height="30" as="geometry" />
        </mxCell>
        <mxCell id="BKNhkeZttfRGMTX37o8m-62" value="" style="shape=partialRectangle;collapsible=0;dropTarget=0;pointerEvents=0;fillColor=none;points=[[0,0.5],[1,0.5]];portConstraint=eastwest;top=0;left=0;right=0;bottom=0;" vertex="1" parent="BKNhkeZttfRGMTX37o8m-58">
          <mxGeometry y="60" width="320" height="30" as="geometry" />
        </mxCell>
        <mxCell id="BKNhkeZttfRGMTX37o8m-63" value="" style="shape=partialRectangle;overflow=hidden;connectable=0;fillColor=none;top=0;left=0;bottom=0;right=0;" vertex="1" parent="BKNhkeZttfRGMTX37o8m-62">
          <mxGeometry width="30" height="30" as="geometry" />
        </mxCell>
        <mxCell id="BKNhkeZttfRGMTX37o8m-64" value="patient_id INT" style="shape=partialRectangle;overflow=hidden;connectable=0;fillColor=none;top=0;left=0;bottom=0;right=0;align=left;spacingLeft=6;" vertex="1" parent="BKNhkeZttfRGMTX37o8m-62">
          <mxGeometry x="30" width="290" height="30" as="geometry" />
        </mxCell>
        <mxCell id="BKNhkeZttfRGMTX37o8m-65" value="" style="shape=partialRectangle;collapsible=0;dropTarget=0;pointerEvents=0;fillColor=none;points=[[0,0.5],[1,0.5]];portConstraint=eastwest;top=0;left=0;right=0;bottom=0;" vertex="1" parent="BKNhkeZttfRGMTX37o8m-58">
          <mxGeometry y="90" width="320" height="30" as="geometry" />
        </mxCell>
        <mxCell id="BKNhkeZttfRGMTX37o8m-66" value="" style="shape=partialRectangle;overflow=hidden;connectable=0;fillColor=none;top=0;left=0;bottom=0;right=0;" vertex="1" parent="BKNhkeZttfRGMTX37o8m-65">
          <mxGeometry width="30" height="30" as="geometry" />
        </mxCell>
        <mxCell id="BKNhkeZttfRGMTX37o8m-67" value="doctor_id INT NOT NULL" style="shape=partialRectangle;overflow=hidden;connectable=0;fillColor=none;top=0;left=0;bottom=0;right=0;align=left;spacingLeft=6;" vertex="1" parent="BKNhkeZttfRGMTX37o8m-65">
          <mxGeometry x="30" width="290" height="30" as="geometry" />
        </mxCell>
        <mxCell id="BKNhkeZttfRGMTX37o8m-68" value="" style="shape=partialRectangle;collapsible=0;dropTarget=0;pointerEvents=0;fillColor=none;points=[[0,0.5],[1,0.5]];portConstraint=eastwest;top=0;left=0;right=0;bottom=0;" vertex="1" parent="BKNhkeZttfRGMTX37o8m-58">
          <mxGeometry y="120" width="320" height="30" as="geometry" />
        </mxCell>
        <mxCell id="BKNhkeZttfRGMTX37o8m-69" value="" style="shape=partialRectangle;overflow=hidden;connectable=0;fillColor=none;top=0;left=0;bottom=0;right=0;" vertex="1" parent="BKNhkeZttfRGMTX37o8m-68">
          <mxGeometry width="30" height="30" as="geometry" />
        </mxCell>
        <mxCell id="BKNhkeZttfRGMTX37o8m-70" value="app_date_ VARCHAR(12) NOT NULL" style="shape=partialRectangle;overflow=hidden;connectable=0;fillColor=none;top=0;left=0;bottom=0;right=0;align=left;spacingLeft=6;" vertex="1" parent="BKNhkeZttfRGMTX37o8m-68">
          <mxGeometry x="30" width="290" height="30" as="geometry" />
        </mxCell>
        <mxCell id="BKNhkeZttfRGMTX37o8m-71" value="" style="shape=partialRectangle;collapsible=0;dropTarget=0;pointerEvents=0;fillColor=none;points=[[0,0.5],[1,0.5]];portConstraint=eastwest;top=0;left=0;right=0;bottom=0;" vertex="1" parent="BKNhkeZttfRGMTX37o8m-58">
          <mxGeometry y="150" width="320" height="30" as="geometry" />
        </mxCell>
        <mxCell id="BKNhkeZttfRGMTX37o8m-72" value="" style="shape=partialRectangle;overflow=hidden;connectable=0;fillColor=none;top=0;left=0;bottom=0;right=0;" vertex="1" parent="BKNhkeZttfRGMTX37o8m-71">
          <mxGeometry width="30" height="30" as="geometry" />
        </mxCell>
        <mxCell id="BKNhkeZttfRGMTX37o8m-73" value="book_time DATETIME" style="shape=partialRectangle;overflow=hidden;connectable=0;fillColor=none;top=0;left=0;bottom=0;right=0;align=left;spacingLeft=6;" vertex="1" parent="BKNhkeZttfRGMTX37o8m-71">
          <mxGeometry x="30" width="290" height="30" as="geometry" />
        </mxCell>
        <mxCell id="BKNhkeZttfRGMTX37o8m-74" value="" style="shape=partialRectangle;collapsible=0;dropTarget=0;pointerEvents=0;fillColor=none;points=[[0,0.5],[1,0.5]];portConstraint=eastwest;top=0;left=0;right=0;bottom=0;" vertex="1" parent="BKNhkeZttfRGMTX37o8m-58">
          <mxGeometry y="180" width="320" height="30" as="geometry" />
        </mxCell>
        <mxCell id="BKNhkeZttfRGMTX37o8m-75" value="" style="shape=partialRectangle;overflow=hidden;connectable=0;fillColor=none;top=0;left=0;bottom=0;right=0;" vertex="1" parent="BKNhkeZttfRGMTX37o8m-74">
          <mxGeometry width="30" height="30" as="geometry" />
        </mxCell>
        <mxCell id="BKNhkeZttfRGMTX37o8m-76" value="FOREIGN KEY (doctor_id) REFERENCES doctor (id)" style="shape=partialRectangle;overflow=hidden;connectable=0;fillColor=none;top=0;left=0;bottom=0;right=0;align=left;spacingLeft=6;" vertex="1" parent="BKNhkeZttfRGMTX37o8m-74">
          <mxGeometry x="30" width="290" height="30" as="geometry" />
        </mxCell>
        <mxCell id="BKNhkeZttfRGMTX37o8m-77" value="" style="shape=partialRectangle;collapsible=0;dropTarget=0;pointerEvents=0;fillColor=none;points=[[0,0.5],[1,0.5]];portConstraint=eastwest;top=0;left=0;right=0;bottom=0;" vertex="1" parent="BKNhkeZttfRGMTX37o8m-58">
          <mxGeometry y="210" width="320" height="30" as="geometry" />
        </mxCell>
        <mxCell id="BKNhkeZttfRGMTX37o8m-78" value="" style="shape=partialRectangle;overflow=hidden;connectable=0;fillColor=none;top=0;left=0;bottom=0;right=0;" vertex="1" parent="BKNhkeZttfRGMTX37o8m-77">
          <mxGeometry width="30" height="30" as="geometry" />
        </mxCell>
        <mxCell id="BKNhkeZttfRGMTX37o8m-79" value="FOREIGN KEY (patient_id) REFERENCES patient (id)" style="shape=partialRectangle;overflow=hidden;connectable=0;fillColor=none;top=0;left=0;bottom=0;right=0;align=left;spacingLeft=6;" vertex="1" parent="BKNhkeZttfRGMTX37o8m-77">
          <mxGeometry x="30" width="290" height="30" as="geometry" />
        </mxCell>
        <mxCell id="BKNhkeZttfRGMTX37o8m-80" value="medical_record" style="shape=table;startSize=30;container=1;collapsible=1;childLayout=tableLayout;fixedRows=1;rowLines=0;fontStyle=1;align=center;resizeLast=1;" vertex="1" parent="1">
          <mxGeometry x="-370" y="105" width="340" height="390" as="geometry" />
        </mxCell>
        <mxCell id="BKNhkeZttfRGMTX37o8m-169" style="shape=partialRectangle;collapsible=0;dropTarget=0;pointerEvents=0;fillColor=none;points=[[0,0.5],[1,0.5]];portConstraint=eastwest;top=0;left=0;right=0;bottom=0;" vertex="1" parent="BKNhkeZttfRGMTX37o8m-80">
          <mxGeometry y="30" width="340" height="50" as="geometry" />
        </mxCell>
        <mxCell id="BKNhkeZttfRGMTX37o8m-170" value="PK&#xa;____" style="shape=partialRectangle;overflow=hidden;connectable=0;fillColor=none;top=0;left=0;bottom=0;right=0;fontStyle=1" vertex="1" parent="BKNhkeZttfRGMTX37o8m-169">
          <mxGeometry width="30" height="50" as="geometry" />
        </mxCell>
        <mxCell id="BKNhkeZttfRGMTX37o8m-171" value="id INT NOT NULL&#xa;_____________________________________________" style="shape=partialRectangle;overflow=hidden;connectable=0;fillColor=none;top=0;left=0;bottom=0;right=0;align=left;spacingLeft=6;fontStyle=1" vertex="1" parent="BKNhkeZttfRGMTX37o8m-169">
          <mxGeometry x="30" width="310" height="50" as="geometry" />
        </mxCell>
        <mxCell id="BKNhkeZttfRGMTX37o8m-81" value="" style="shape=partialRectangle;collapsible=0;dropTarget=0;pointerEvents=0;fillColor=none;points=[[0,0.5],[1,0.5]];portConstraint=eastwest;top=0;left=0;right=0;bottom=0;" vertex="1" parent="BKNhkeZttfRGMTX37o8m-80">
          <mxGeometry y="80" width="340" height="30" as="geometry" />
        </mxCell>
        <mxCell id="BKNhkeZttfRGMTX37o8m-82" value="" style="shape=partialRectangle;overflow=hidden;connectable=0;fillColor=none;top=0;left=0;bottom=0;right=0;" vertex="1" parent="BKNhkeZttfRGMTX37o8m-81">
          <mxGeometry width="30" height="30" as="geometry" />
        </mxCell>
        <mxCell id="BKNhkeZttfRGMTX37o8m-83" value="&#xa;patient_id INT NOT NULL" style="shape=partialRectangle;overflow=hidden;connectable=0;fillColor=none;top=0;left=0;bottom=0;right=0;align=left;spacingLeft=6;fontStyle=0" vertex="1" parent="BKNhkeZttfRGMTX37o8m-81">
          <mxGeometry x="30" width="310" height="30" as="geometry" />
        </mxCell>
        <mxCell id="BKNhkeZttfRGMTX37o8m-84" value="" style="shape=partialRectangle;collapsible=0;dropTarget=0;pointerEvents=0;fillColor=none;points=[[0,0.5],[1,0.5]];portConstraint=eastwest;top=0;left=0;right=0;bottom=0;" vertex="1" parent="BKNhkeZttfRGMTX37o8m-80">
          <mxGeometry y="110" width="340" height="30" as="geometry" />
        </mxCell>
        <mxCell id="BKNhkeZttfRGMTX37o8m-85" value="" style="shape=partialRectangle;overflow=hidden;connectable=0;fillColor=none;top=0;left=0;bottom=0;right=0;" vertex="1" parent="BKNhkeZttfRGMTX37o8m-84">
          <mxGeometry width="30" height="30" as="geometry" />
        </mxCell>
        <mxCell id="BKNhkeZttfRGMTX37o8m-86" value="doctor_id INT NOT NULL" style="shape=partialRectangle;overflow=hidden;connectable=0;fillColor=none;top=0;left=0;bottom=0;right=0;align=left;spacingLeft=6;" vertex="1" parent="BKNhkeZttfRGMTX37o8m-84">
          <mxGeometry x="30" width="310" height="30" as="geometry" />
        </mxCell>
        <mxCell id="BKNhkeZttfRGMTX37o8m-87" value="" style="shape=partialRectangle;collapsible=0;dropTarget=0;pointerEvents=0;fillColor=none;points=[[0,0.5],[1,0.5]];portConstraint=eastwest;top=0;left=0;right=0;bottom=0;" vertex="1" parent="BKNhkeZttfRGMTX37o8m-80">
          <mxGeometry y="140" width="340" height="30" as="geometry" />
        </mxCell>
        <mxCell id="BKNhkeZttfRGMTX37o8m-88" value="" style="shape=partialRectangle;overflow=hidden;connectable=0;fillColor=none;top=0;left=0;bottom=0;right=0;" vertex="1" parent="BKNhkeZttfRGMTX37o8m-87">
          <mxGeometry width="30" height="30" as="geometry" />
        </mxCell>
        <mxCell id="BKNhkeZttfRGMTX37o8m-89" value="mr_app_id INT NOT NULL" style="shape=partialRectangle;overflow=hidden;connectable=0;fillColor=none;top=0;left=0;bottom=0;right=0;align=left;spacingLeft=6;" vertex="1" parent="BKNhkeZttfRGMTX37o8m-87">
          <mxGeometry x="30" width="310" height="30" as="geometry" />
        </mxCell>
        <mxCell id="BKNhkeZttfRGMTX37o8m-90" value="" style="shape=partialRectangle;collapsible=0;dropTarget=0;pointerEvents=0;fillColor=none;points=[[0,0.5],[1,0.5]];portConstraint=eastwest;top=0;left=0;right=0;bottom=0;" vertex="1" parent="BKNhkeZttfRGMTX37o8m-80">
          <mxGeometry y="170" width="340" height="30" as="geometry" />
        </mxCell>
        <mxCell id="BKNhkeZttfRGMTX37o8m-91" value="" style="shape=partialRectangle;overflow=hidden;connectable=0;fillColor=none;top=0;left=0;bottom=0;right=0;" vertex="1" parent="BKNhkeZttfRGMTX37o8m-90">
          <mxGeometry width="30" height="30" as="geometry" />
        </mxCell>
        <mxCell id="BKNhkeZttfRGMTX37o8m-92" value="app_date_ VARCHAR(12) NOT NULL" style="shape=partialRectangle;overflow=hidden;connectable=0;fillColor=none;top=0;left=0;bottom=0;right=0;align=left;spacingLeft=6;" vertex="1" parent="BKNhkeZttfRGMTX37o8m-90">
          <mxGeometry x="30" width="310" height="30" as="geometry" />
        </mxCell>
        <mxCell id="BKNhkeZttfRGMTX37o8m-93" value="" style="shape=partialRectangle;collapsible=0;dropTarget=0;pointerEvents=0;fillColor=none;points=[[0,0.5],[1,0.5]];portConstraint=eastwest;top=0;left=0;right=0;bottom=0;" vertex="1" parent="BKNhkeZttfRGMTX37o8m-80">
          <mxGeometry y="200" width="340" height="30" as="geometry" />
        </mxCell>
        <mxCell id="BKNhkeZttfRGMTX37o8m-94" value="" style="shape=partialRectangle;overflow=hidden;connectable=0;fillColor=none;top=0;left=0;bottom=0;right=0;" vertex="1" parent="BKNhkeZttfRGMTX37o8m-93">
          <mxGeometry width="30" height="30" as="geometry" />
        </mxCell>
        <mxCell id="BKNhkeZttfRGMTX37o8m-95" value="diagnosis VARCHAR(100) NOT NULL" style="shape=partialRectangle;overflow=hidden;connectable=0;fillColor=none;top=0;left=0;bottom=0;right=0;align=left;spacingLeft=6;" vertex="1" parent="BKNhkeZttfRGMTX37o8m-93">
          <mxGeometry x="30" width="310" height="30" as="geometry" />
        </mxCell>
        <mxCell id="BKNhkeZttfRGMTX37o8m-96" value="" style="shape=partialRectangle;collapsible=0;dropTarget=0;pointerEvents=0;fillColor=none;points=[[0,0.5],[1,0.5]];portConstraint=eastwest;top=0;left=0;right=0;bottom=0;" vertex="1" parent="BKNhkeZttfRGMTX37o8m-80">
          <mxGeometry y="230" width="340" height="30" as="geometry" />
        </mxCell>
        <mxCell id="BKNhkeZttfRGMTX37o8m-97" value="" style="shape=partialRectangle;overflow=hidden;connectable=0;fillColor=none;top=0;left=0;bottom=0;right=0;" vertex="1" parent="BKNhkeZttfRGMTX37o8m-96">
          <mxGeometry width="30" height="30" as="geometry" />
        </mxCell>
        <mxCell id="BKNhkeZttfRGMTX37o8m-98" value="description VARCHAR(100) NOT NULL" style="shape=partialRectangle;overflow=hidden;connectable=0;fillColor=none;top=0;left=0;bottom=0;right=0;align=left;spacingLeft=6;" vertex="1" parent="BKNhkeZttfRGMTX37o8m-96">
          <mxGeometry x="30" width="310" height="30" as="geometry" />
        </mxCell>
        <mxCell id="BKNhkeZttfRGMTX37o8m-99" value="" style="shape=partialRectangle;collapsible=0;dropTarget=0;pointerEvents=0;fillColor=none;points=[[0,0.5],[1,0.5]];portConstraint=eastwest;top=0;left=0;right=0;bottom=0;" vertex="1" parent="BKNhkeZttfRGMTX37o8m-80">
          <mxGeometry y="260" width="340" height="30" as="geometry" />
        </mxCell>
        <mxCell id="BKNhkeZttfRGMTX37o8m-100" value="" style="shape=partialRectangle;overflow=hidden;connectable=0;fillColor=none;top=0;left=0;bottom=0;right=0;" vertex="1" parent="BKNhkeZttfRGMTX37o8m-99">
          <mxGeometry width="30" height="30" as="geometry" />
        </mxCell>
        <mxCell id="BKNhkeZttfRGMTX37o8m-101" value="drugs VARCHAR(100)" style="shape=partialRectangle;overflow=hidden;connectable=0;fillColor=none;top=0;left=0;bottom=0;right=0;align=left;spacingLeft=6;" vertex="1" parent="BKNhkeZttfRGMTX37o8m-99">
          <mxGeometry x="30" width="310" height="30" as="geometry" />
        </mxCell>
        <mxCell id="BKNhkeZttfRGMTX37o8m-102" value="" style="shape=partialRectangle;collapsible=0;dropTarget=0;pointerEvents=0;fillColor=none;points=[[0,0.5],[1,0.5]];portConstraint=eastwest;top=0;left=0;right=0;bottom=0;" vertex="1" parent="BKNhkeZttfRGMTX37o8m-80">
          <mxGeometry y="290" width="340" height="30" as="geometry" />
        </mxCell>
        <mxCell id="BKNhkeZttfRGMTX37o8m-103" value="" style="shape=partialRectangle;overflow=hidden;connectable=0;fillColor=none;top=0;left=0;bottom=0;right=0;" vertex="1" parent="BKNhkeZttfRGMTX37o8m-102">
          <mxGeometry width="30" height="30" as="geometry" />
        </mxCell>
        <mxCell id="BKNhkeZttfRGMTX37o8m-104" value="FOREIGN KEY (doctor_id) REFERENCES doctor (id)" style="shape=partialRectangle;overflow=hidden;connectable=0;fillColor=none;top=0;left=0;bottom=0;right=0;align=left;spacingLeft=6;" vertex="1" parent="BKNhkeZttfRGMTX37o8m-102">
          <mxGeometry x="30" width="310" height="30" as="geometry" />
        </mxCell>
        <mxCell id="BKNhkeZttfRGMTX37o8m-105" value="" style="shape=partialRectangle;collapsible=0;dropTarget=0;pointerEvents=0;fillColor=none;points=[[0,0.5],[1,0.5]];portConstraint=eastwest;top=0;left=0;right=0;bottom=0;" vertex="1" parent="BKNhkeZttfRGMTX37o8m-80">
          <mxGeometry y="320" width="340" height="30" as="geometry" />
        </mxCell>
        <mxCell id="BKNhkeZttfRGMTX37o8m-106" value="" style="shape=partialRectangle;overflow=hidden;connectable=0;fillColor=none;top=0;left=0;bottom=0;right=0;" vertex="1" parent="BKNhkeZttfRGMTX37o8m-105">
          <mxGeometry width="30" height="30" as="geometry" />
        </mxCell>
        <mxCell id="BKNhkeZttfRGMTX37o8m-107" value="FOREIGN KEY (patient_id) REFERENCES patient (id)" style="shape=partialRectangle;overflow=hidden;connectable=0;fillColor=none;top=0;left=0;bottom=0;right=0;align=left;spacingLeft=6;" vertex="1" parent="BKNhkeZttfRGMTX37o8m-105">
          <mxGeometry x="30" width="310" height="30" as="geometry" />
        </mxCell>
        <mxCell id="BKNhkeZttfRGMTX37o8m-108" value="" style="shape=partialRectangle;collapsible=0;dropTarget=0;pointerEvents=0;fillColor=none;points=[[0,0.5],[1,0.5]];portConstraint=eastwest;top=0;left=0;right=0;bottom=0;" vertex="1" parent="BKNhkeZttfRGMTX37o8m-80">
          <mxGeometry y="350" width="340" height="30" as="geometry" />
        </mxCell>
        <mxCell id="BKNhkeZttfRGMTX37o8m-109" value="" style="shape=partialRectangle;overflow=hidden;connectable=0;fillColor=none;top=0;left=0;bottom=0;right=0;" vertex="1" parent="BKNhkeZttfRGMTX37o8m-108">
          <mxGeometry width="30" height="30" as="geometry" />
        </mxCell>
        <mxCell id="BKNhkeZttfRGMTX37o8m-110" value="FOREIGN KEY (mr_app_id) REFERENCES appointment (app_id)" style="shape=partialRectangle;overflow=hidden;connectable=0;fillColor=none;top=0;left=0;bottom=0;right=0;align=left;spacingLeft=6;" vertex="1" parent="BKNhkeZttfRGMTX37o8m-108">
          <mxGeometry x="30" width="310" height="30" as="geometry" />
        </mxCell>
        <mxCell id="BKNhkeZttfRGMTX37o8m-111" value="doctor_logs" style="shape=table;startSize=30;container=1;collapsible=1;childLayout=tableLayout;fixedRows=1;rowLines=0;fontStyle=1;align=center;resizeLast=1;" vertex="1" parent="1">
          <mxGeometry x="-340" y="-70" width="190" height="160" as="geometry" />
        </mxCell>
        <mxCell id="BKNhkeZttfRGMTX37o8m-172" style="shape=partialRectangle;collapsible=0;dropTarget=0;pointerEvents=0;fillColor=none;points=[[0,0.5],[1,0.5]];portConstraint=eastwest;top=0;left=0;right=0;bottom=0;" vertex="1" parent="BKNhkeZttfRGMTX37o8m-111">
          <mxGeometry y="30" width="190" height="30" as="geometry" />
        </mxCell>
        <mxCell id="BKNhkeZttfRGMTX37o8m-173" value="PK&#xa;____" style="shape=partialRectangle;overflow=hidden;connectable=0;fillColor=none;top=0;left=0;bottom=0;right=0;fontStyle=1" vertex="1" parent="BKNhkeZttfRGMTX37o8m-172">
          <mxGeometry width="30" height="30" as="geometry" />
        </mxCell>
        <mxCell id="BKNhkeZttfRGMTX37o8m-174" value="int ID NOT NULL&#xa;_______________________" style="shape=partialRectangle;overflow=hidden;connectable=0;fillColor=none;top=0;left=0;bottom=0;right=0;align=left;spacingLeft=6;fontStyle=1" vertex="1" parent="BKNhkeZttfRGMTX37o8m-172">
          <mxGeometry x="30" width="160" height="30" as="geometry" />
        </mxCell>
        <mxCell id="BKNhkeZttfRGMTX37o8m-112" value="" style="shape=partialRectangle;collapsible=0;dropTarget=0;pointerEvents=0;fillColor=none;points=[[0,0.5],[1,0.5]];portConstraint=eastwest;top=0;left=0;right=0;bottom=0;" vertex="1" parent="BKNhkeZttfRGMTX37o8m-111">
          <mxGeometry y="60" width="190" height="30" as="geometry" />
        </mxCell>
        <mxCell id="BKNhkeZttfRGMTX37o8m-113" value="" style="shape=partialRectangle;overflow=hidden;connectable=0;fillColor=none;top=0;left=0;bottom=0;right=0;" vertex="1" parent="BKNhkeZttfRGMTX37o8m-112">
          <mxGeometry width="30" height="30" as="geometry" />
        </mxCell>
        <mxCell id="BKNhkeZttfRGMTX37o8m-114" value="logid INT" style="shape=partialRectangle;overflow=hidden;connectable=0;fillColor=none;top=0;left=0;bottom=0;right=0;align=left;spacingLeft=6;" vertex="1" parent="BKNhkeZttfRGMTX37o8m-112">
          <mxGeometry x="30" width="160" height="30" as="geometry" />
        </mxCell>
        <mxCell id="BKNhkeZttfRGMTX37o8m-115" value="" style="shape=partialRectangle;collapsible=0;dropTarget=0;pointerEvents=0;fillColor=none;points=[[0,0.5],[1,0.5]];portConstraint=eastwest;top=0;left=0;right=0;bottom=0;" vertex="1" parent="BKNhkeZttfRGMTX37o8m-111">
          <mxGeometry y="90" width="190" height="30" as="geometry" />
        </mxCell>
        <mxCell id="BKNhkeZttfRGMTX37o8m-116" value="" style="shape=partialRectangle;overflow=hidden;connectable=0;fillColor=none;top=0;left=0;bottom=0;right=0;" vertex="1" parent="BKNhkeZttfRGMTX37o8m-115">
          <mxGeometry width="30" height="30" as="geometry" />
        </mxCell>
        <mxCell id="BKNhkeZttfRGMTX37o8m-117" value="last_name VARCHAR(10)" style="shape=partialRectangle;overflow=hidden;connectable=0;fillColor=none;top=0;left=0;bottom=0;right=0;align=left;spacingLeft=6;" vertex="1" parent="BKNhkeZttfRGMTX37o8m-115">
          <mxGeometry x="30" width="160" height="30" as="geometry" />
        </mxCell>
        <mxCell id="BKNhkeZttfRGMTX37o8m-118" value="" style="shape=partialRectangle;collapsible=0;dropTarget=0;pointerEvents=0;fillColor=none;points=[[0,0.5],[1,0.5]];portConstraint=eastwest;top=0;left=0;right=0;bottom=0;" vertex="1" parent="BKNhkeZttfRGMTX37o8m-111">
          <mxGeometry y="120" width="190" height="30" as="geometry" />
        </mxCell>
        <mxCell id="BKNhkeZttfRGMTX37o8m-119" value="" style="shape=partialRectangle;overflow=hidden;connectable=0;fillColor=none;top=0;left=0;bottom=0;right=0;" vertex="1" parent="BKNhkeZttfRGMTX37o8m-118">
          <mxGeometry width="30" height="30" as="geometry" />
        </mxCell>
        <mxCell id="BKNhkeZttfRGMTX37o8m-120" value="text varchar(50)" style="shape=partialRectangle;overflow=hidden;connectable=0;fillColor=none;top=0;left=0;bottom=0;right=0;align=left;spacingLeft=6;" vertex="1" parent="BKNhkeZttfRGMTX37o8m-118">
          <mxGeometry x="30" width="160" height="30" as="geometry" />
        </mxCell>
        <mxCell id="BKNhkeZttfRGMTX37o8m-121" value="patient_logs" style="shape=table;startSize=30;container=1;collapsible=1;childLayout=tableLayout;fixedRows=1;rowLines=0;fontStyle=1;align=center;resizeLast=1;" vertex="1" parent="1">
          <mxGeometry x="-140" y="-70" width="140" height="160" as="geometry" />
        </mxCell>
        <mxCell id="BKNhkeZttfRGMTX37o8m-175" style="shape=partialRectangle;collapsible=0;dropTarget=0;pointerEvents=0;fillColor=none;points=[[0,0.5],[1,0.5]];portConstraint=eastwest;top=0;left=0;right=0;bottom=0;" vertex="1" parent="BKNhkeZttfRGMTX37o8m-121">
          <mxGeometry y="30" width="140" height="30" as="geometry" />
        </mxCell>
        <mxCell id="BKNhkeZttfRGMTX37o8m-176" value="PK&#xa;____" style="shape=partialRectangle;overflow=hidden;connectable=0;fillColor=none;top=0;left=0;bottom=0;right=0;fontStyle=1" vertex="1" parent="BKNhkeZttfRGMTX37o8m-175">
          <mxGeometry width="30" height="30" as="geometry" />
        </mxCell>
        <mxCell id="BKNhkeZttfRGMTX37o8m-177" value="int ID NOT NULL&#xa;_______________" style="shape=partialRectangle;overflow=hidden;connectable=0;fillColor=none;top=0;left=0;bottom=0;right=0;align=left;spacingLeft=6;fontStyle=1" vertex="1" parent="BKNhkeZttfRGMTX37o8m-175">
          <mxGeometry x="30" width="110" height="30" as="geometry" />
        </mxCell>
        <mxCell id="BKNhkeZttfRGMTX37o8m-122" value="" style="shape=partialRectangle;collapsible=0;dropTarget=0;pointerEvents=0;fillColor=none;points=[[0,0.5],[1,0.5]];portConstraint=eastwest;top=0;left=0;right=0;bottom=0;" vertex="1" parent="BKNhkeZttfRGMTX37o8m-121">
          <mxGeometry y="60" width="140" height="30" as="geometry" />
        </mxCell>
        <mxCell id="BKNhkeZttfRGMTX37o8m-123" value="" style="shape=partialRectangle;overflow=hidden;connectable=0;fillColor=none;top=0;left=0;bottom=0;right=0;" vertex="1" parent="BKNhkeZttfRGMTX37o8m-122">
          <mxGeometry width="30" height="30" as="geometry" />
        </mxCell>
        <mxCell id="BKNhkeZttfRGMTX37o8m-124" value="pat_id INT" style="shape=partialRectangle;overflow=hidden;connectable=0;fillColor=none;top=0;left=0;bottom=0;right=0;align=left;spacingLeft=6;" vertex="1" parent="BKNhkeZttfRGMTX37o8m-122">
          <mxGeometry x="30" width="110" height="30" as="geometry" />
        </mxCell>
        <mxCell id="BKNhkeZttfRGMTX37o8m-125" value="" style="shape=partialRectangle;collapsible=0;dropTarget=0;pointerEvents=0;fillColor=none;points=[[0,0.5],[1,0.5]];portConstraint=eastwest;top=0;left=0;right=0;bottom=0;" vertex="1" parent="BKNhkeZttfRGMTX37o8m-121">
          <mxGeometry y="90" width="140" height="30" as="geometry" />
        </mxCell>
        <mxCell id="BKNhkeZttfRGMTX37o8m-126" value="" style="shape=partialRectangle;overflow=hidden;connectable=0;fillColor=none;top=0;left=0;bottom=0;right=0;" vertex="1" parent="BKNhkeZttfRGMTX37o8m-125">
          <mxGeometry width="30" height="30" as="geometry" />
        </mxCell>
        <mxCell id="BKNhkeZttfRGMTX37o8m-127" value="dob DATE" style="shape=partialRectangle;overflow=hidden;connectable=0;fillColor=none;top=0;left=0;bottom=0;right=0;align=left;spacingLeft=6;" vertex="1" parent="BKNhkeZttfRGMTX37o8m-125">
          <mxGeometry x="30" width="110" height="30" as="geometry" />
        </mxCell>
        <mxCell id="BKNhkeZttfRGMTX37o8m-128" value="" style="shape=partialRectangle;collapsible=0;dropTarget=0;pointerEvents=0;fillColor=none;points=[[0,0.5],[1,0.5]];portConstraint=eastwest;top=0;left=0;right=0;bottom=0;" vertex="1" parent="BKNhkeZttfRGMTX37o8m-121">
          <mxGeometry y="120" width="140" height="30" as="geometry" />
        </mxCell>
        <mxCell id="BKNhkeZttfRGMTX37o8m-129" value="" style="shape=partialRectangle;overflow=hidden;connectable=0;fillColor=none;top=0;left=0;bottom=0;right=0;" vertex="1" parent="BKNhkeZttfRGMTX37o8m-128">
          <mxGeometry width="30" height="30" as="geometry" />
        </mxCell>
        <mxCell id="BKNhkeZttfRGMTX37o8m-130" value="text varchar(50)" style="shape=partialRectangle;overflow=hidden;connectable=0;fillColor=none;top=0;left=0;bottom=0;right=0;align=left;spacingLeft=6;" vertex="1" parent="BKNhkeZttfRGMTX37o8m-128">
          <mxGeometry x="30" width="110" height="30" as="geometry" />
        </mxCell>
        <mxCell id="BKNhkeZttfRGMTX37o8m-139" style="edgeStyle=orthogonalEdgeStyle;rounded=0;jumpSize=13;orthogonalLoop=1;jettySize=auto;html=1;entryX=0;entryY=0.5;entryDx=0;entryDy=0;" edge="1" parent="1" source="BKNhkeZttfRGMTX37o8m-136" target="BKNhkeZttfRGMTX37o8m-93">
          <mxGeometry relative="1" as="geometry" />
        </mxCell>
        <mxCell id="BKNhkeZttfRGMTX37o8m-136" value="EDITS" style="shape=rhombus;double=1;perimeter=rhombusPerimeter;whiteSpace=wrap;html=1;align=center;" vertex="1" parent="1">
          <mxGeometry x="-700" y="290" width="120" height="60" as="geometry" />
        </mxCell>
        <mxCell id="BKNhkeZttfRGMTX37o8m-140" value="1" style="text;html=1;align=center;verticalAlign=middle;resizable=0;points=[];autosize=1;" vertex="1" parent="1">
          <mxGeometry x="-670" y="380" width="20" height="20" as="geometry" />
        </mxCell>
        <mxCell id="BKNhkeZttfRGMTX37o8m-141" value="n" style="text;html=1;align=center;verticalAlign=middle;resizable=0;points=[];autosize=1;" vertex="1" parent="1">
          <mxGeometry x="-560" y="290" width="20" height="20" as="geometry" />
        </mxCell>
        <mxCell id="BKNhkeZttfRGMTX37o8m-146" style="edgeStyle=orthogonalEdgeStyle;rounded=0;jumpSize=13;orthogonalLoop=1;jettySize=auto;html=1;entryX=1;entryY=0.5;entryDx=0;entryDy=0;" edge="1" parent="1" source="BKNhkeZttfRGMTX37o8m-143" target="BKNhkeZttfRGMTX37o8m-93">
          <mxGeometry relative="1" as="geometry" />
        </mxCell>
        <mxCell id="BKNhkeZttfRGMTX37o8m-143" value="HAS" style="shape=rhombus;perimeter=rhombusPerimeter;whiteSpace=wrap;html=1;align=center;" vertex="1" parent="1">
          <mxGeometry x="40" y="290" width="120" height="60" as="geometry" />
        </mxCell>
        <mxCell id="BKNhkeZttfRGMTX37o8m-147" style="edgeStyle=orthogonalEdgeStyle;rounded=0;jumpSize=13;orthogonalLoop=1;jettySize=auto;html=1;entryX=1;entryY=0.5;entryDx=0;entryDy=0;" edge="1" parent="1" source="BKNhkeZttfRGMTX37o8m-43" target="BKNhkeZttfRGMTX37o8m-143">
          <mxGeometry relative="1" as="geometry" />
        </mxCell>
        <mxCell id="BKNhkeZttfRGMTX37o8m-148" value="1" style="text;html=1;align=center;verticalAlign=middle;resizable=0;points=[];autosize=1;" vertex="1" parent="1">
          <mxGeometry x="170" y="280" width="20" height="20" as="geometry" />
        </mxCell>
        <mxCell id="BKNhkeZttfRGMTX37o8m-149" value="n" style="text;html=1;align=center;verticalAlign=middle;resizable=0;points=[];autosize=1;" vertex="1" parent="1">
          <mxGeometry y="290" width="20" height="20" as="geometry" />
        </mxCell>
        <mxCell id="BKNhkeZttfRGMTX37o8m-162" style="edgeStyle=orthogonalEdgeStyle;rounded=0;jumpSize=13;orthogonalLoop=1;jettySize=auto;html=1;entryX=1;entryY=0.5;entryDx=0;entryDy=0;" edge="1" parent="1" source="BKNhkeZttfRGMTX37o8m-153" target="BKNhkeZttfRGMTX37o8m-14">
          <mxGeometry relative="1" as="geometry" />
        </mxCell>
        <mxCell id="BKNhkeZttfRGMTX37o8m-153" value="IS BOOKED BY" style="shape=rhombus;perimeter=rhombusPerimeter;whiteSpace=wrap;html=1;align=center;" vertex="1" parent="1">
          <mxGeometry x="-460" y="735" width="120" height="60" as="geometry" />
        </mxCell>
        <mxCell id="BKNhkeZttfRGMTX37o8m-158" style="edgeStyle=orthogonalEdgeStyle;rounded=0;jumpSize=13;orthogonalLoop=1;jettySize=auto;html=1;entryX=1;entryY=0.5;entryDx=0;entryDy=0;" edge="1" parent="1" source="BKNhkeZttfRGMTX37o8m-156" target="BKNhkeZttfRGMTX37o8m-68">
          <mxGeometry relative="1" as="geometry" />
        </mxCell>
        <mxCell id="BKNhkeZttfRGMTX37o8m-156" value="BOOKS" style="shape=rhombus;perimeter=rhombusPerimeter;whiteSpace=wrap;html=1;align=center;" vertex="1" parent="1">
          <mxGeometry x="295" y="735" width="120" height="60" as="geometry" />
        </mxCell>
        <mxCell id="BKNhkeZttfRGMTX37o8m-159" value="1" style="text;html=1;align=center;verticalAlign=middle;resizable=0;points=[];autosize=1;" vertex="1" parent="1">
          <mxGeometry x="300" y="610" width="20" height="20" as="geometry" />
        </mxCell>
        <mxCell id="BKNhkeZttfRGMTX37o8m-160" value="n" style="text;html=1;align=center;verticalAlign=middle;resizable=0;points=[];autosize=1;" vertex="1" parent="1">
          <mxGeometry x="180" y="720" width="20" height="20" as="geometry" />
        </mxCell>
        <mxCell id="BKNhkeZttfRGMTX37o8m-161" style="edgeStyle=orthogonalEdgeStyle;rounded=0;jumpSize=13;orthogonalLoop=1;jettySize=auto;html=1;entryX=1;entryY=0.5;entryDx=0;entryDy=0;" edge="1" parent="1" source="BKNhkeZttfRGMTX37o8m-68" target="BKNhkeZttfRGMTX37o8m-153">
          <mxGeometry relative="1" as="geometry" />
        </mxCell>
        <mxCell id="BKNhkeZttfRGMTX37o8m-163" value="1" style="text;html=1;align=center;verticalAlign=middle;resizable=0;points=[];autosize=1;" vertex="1" parent="1">
          <mxGeometry x="-480" y="620" width="20" height="20" as="geometry" />
        </mxCell>
        <mxCell id="BKNhkeZttfRGMTX37o8m-164" value="n" style="text;html=1;align=center;verticalAlign=middle;resizable=0;points=[];autosize=1;" vertex="1" parent="1">
          <mxGeometry x="-290" y="735" width="20" height="20" as="geometry" />
        </mxCell>
      </root>
    </mxGraphModel>
  </diagram>
</mxfile>
